<svg width="24" height="25" viewBox="0 0 24 25" fill="none" xmlns="http://www.w3.org/2000/svg">
<path d="M15.5121 10.461H13.088V9.85905H15.5131V10.462L15.5121 10.461ZM11.4738 12.9316C11.6305 13.1736 11.708 13.4678 11.708 13.8132C11.708 14.1713 11.6209 14.4907 11.4409 14.7742C11.321 14.9734 11.1607 15.1453 10.9703 15.2788C10.78 15.4123 10.5638 15.5045 10.3357 15.5494C10.0557 15.6054 9.77063 15.6326 9.48505 15.6307H6.77344V9.60938H9.6815C10.4141 9.62099 10.9338 9.83389 11.2405 10.251C11.4244 10.5065 11.5163 10.8132 11.5163 11.1703C11.5163 11.5381 11.4244 11.8332 11.2376 12.0568C11.1351 12.1826 10.9821 12.2968 10.7799 12.3994C11.0857 12.5116 11.318 12.6878 11.4738 12.9316ZM8.16215 11.9832H9.43666C9.69795 11.9832 9.90989 11.9339 10.0725 11.8342C10.236 11.7345 10.3173 11.5584 10.3173 11.3049C10.3173 11.0242 10.2099 10.8384 9.99408 10.7494C9.7635 10.6803 9.52341 10.6483 9.28279 10.6545H8.16215V11.9832V11.9832ZM10.4402 13.7271C10.4402 13.4145 10.3115 13.1987 10.057 13.0826C9.91376 13.0168 9.71247 12.9829 9.45505 12.98H8.16215V14.5845H9.43473C9.69602 14.5845 9.89924 14.5507 10.0444 14.4791C10.3076 14.3484 10.4402 14.0987 10.4402 13.7271V13.7271ZM16.4121 12.7478C16.4412 12.9452 16.4547 13.2307 16.4499 13.6042H13.3096C13.327 14.0378 13.476 14.3407 13.7605 14.5139C13.9309 14.6232 14.138 14.6765 14.3818 14.6765C14.6383 14.6765 14.8463 14.6116 15.008 14.4781C15.1042 14.3959 15.1828 14.2952 15.2392 14.182H16.3909C16.3599 14.4384 16.2215 14.6978 15.9728 14.962C15.5857 15.381 15.0457 15.591 14.3499 15.591C13.7969 15.5981 13.259 15.4104 12.8305 15.0607C12.3931 14.7065 12.1725 14.1316 12.1725 13.3332C12.1725 12.5852 12.3709 12.0123 12.7667 11.6136C13.1634 11.2139 13.6773 11.0155 14.3102 11.0155C14.6847 11.0155 15.0225 11.0823 15.3244 11.2168C15.6244 11.3523 15.8731 11.5642 16.0686 11.8555C16.2457 12.1129 16.3589 12.4091 16.4121 12.7478V12.7478ZM15.2799 12.86C15.2586 12.56 15.158 12.3336 14.978 12.1787C14.7922 12.0205 14.5541 11.937 14.3102 11.9445C14.0199 11.9445 13.7963 12.0287 13.6367 12.1923C13.477 12.3568 13.3773 12.5794 13.3367 12.86H15.2799V12.86Z" fill="white"/>
<path d="M5.80847 4.77142C5.29515 4.77142 4.80285 4.97534 4.43987 5.33831C4.0769 5.70129 3.87298 6.19358 3.87298 6.70691V18.3198C3.87298 18.8331 4.0769 19.3254 4.43987 19.6884C4.80285 20.0514 5.29515 20.2553 5.80847 20.2553H17.4214C17.9347 20.2553 18.427 20.0514 18.79 19.6884C19.1529 19.3254 19.3569 18.8331 19.3569 18.3198V6.70691C19.3569 6.19358 19.1529 5.70129 18.79 5.33831C18.427 4.97534 17.9347 4.77142 17.4214 4.77142H5.80847ZM5.80847 2.83594H17.4214C18.448 2.83594 19.4326 3.24377 20.1586 3.96972C20.8845 4.69567 21.2923 5.68026 21.2923 6.70691V18.3198C21.2923 19.3465 20.8845 20.331 20.1586 21.057C19.4326 21.7829 18.448 22.1908 17.4214 22.1908H5.80847C4.78182 22.1908 3.79723 21.7829 3.07128 21.057C2.34533 20.331 1.9375 19.3465 1.9375 18.3198V6.70691C1.9375 5.68026 2.34533 4.69567 3.07128 3.96972C3.79723 3.24377 4.78182 2.83594 5.80847 2.83594V2.83594Z" fill="white"/>
</svg>
