<svg width="43" height="42" viewBox="0 0 43 42" fill="none" xmlns="http://www.w3.org/2000/svg">
<path d="M28.3519 16.9984H24.0422V15.9282H28.3536V17.0001L28.3519 16.9984ZM21.1725 21.3906C21.4512 21.8207 21.5889 22.3437 21.5889 22.9579C21.5889 23.5945 21.434 24.1622 21.114 24.6663C20.9009 25.0204 20.6159 25.326 20.2776 25.5633C19.9392 25.8007 19.5548 25.9645 19.1493 26.0444C18.6515 26.144 18.1447 26.1924 17.6371 26.1889H12.8164V15.4844H17.9863C19.2887 15.505 20.2125 15.8835 20.7579 16.625C21.0848 17.0792 21.2482 17.6246 21.2482 18.2594C21.2482 18.9132 21.0848 19.4379 20.7528 19.8353C20.5704 20.059 20.2986 20.262 19.939 20.4444C20.4826 20.6439 20.8955 20.9571 21.1725 21.3906ZM15.2852 19.7046H17.551C18.0155 19.7046 18.3923 19.6168 18.6814 19.4396C18.9721 19.2624 19.1166 18.9493 19.1166 18.4986C19.1166 17.9996 18.9257 17.6693 18.542 17.511C18.1321 17.3883 17.7053 17.3314 17.2775 17.3424H15.2852V19.7046V19.7046ZM19.3351 22.8048C19.3351 22.2491 19.1063 21.8654 18.6538 21.659C18.3992 21.542 18.0414 21.4818 17.5837 21.4766H15.2852V24.3291H17.5476C18.0121 24.3291 18.3734 24.2689 18.6315 24.1416C19.0994 23.9093 19.3351 23.4655 19.3351 22.8048V22.8048ZM29.9519 21.0637C30.0035 21.4147 30.0276 21.9222 30.019 22.5863H24.4362C24.4672 23.3571 24.7321 23.8956 25.2379 24.2035C25.5407 24.3979 25.9089 24.4925 26.3424 24.4925C26.7983 24.4925 27.1682 24.3773 27.4555 24.1399C27.6266 23.9938 27.7665 23.8148 27.8667 23.6134H29.914C29.859 24.0693 29.613 24.5304 29.1708 25.0001C28.4826 25.745 27.5226 26.1184 26.2857 26.1184C25.3025 26.1311 24.3463 25.7973 23.5846 25.1756C22.8069 24.5459 22.4147 23.5239 22.4147 22.1046C22.4147 20.7747 22.7674 19.7562 23.471 19.0474C24.1764 18.3368 25.09 17.9842 26.2151 17.9842C26.8809 17.9842 27.4814 18.1029 28.0181 18.342C28.5515 18.5829 28.9936 18.9596 29.3411 19.4775C29.656 19.9351 29.8573 20.4616 29.9519 21.0637V21.0637ZM27.939 21.2633C27.9011 20.73 27.7222 20.3274 27.4022 20.0521C27.0719 19.7708 26.6488 19.6224 26.2151 19.6358C25.699 19.6358 25.3016 19.7854 25.0177 20.0762C24.7338 20.3687 24.5566 20.7644 24.4844 21.2633H27.939V21.2633Z" fill="white"/>
<path d="M11.0966 6.87836C10.184 6.87836 9.30879 7.24088 8.66351 7.88616C8.01822 8.53145 7.6557 9.40665 7.6557 10.3192V30.9644C7.6557 31.877 8.01822 32.7521 8.66351 33.3974C9.30879 34.0427 10.184 34.4052 11.0966 34.4052H31.7417C32.6543 34.4052 33.5295 34.0427 34.1748 33.3974C34.8201 32.7521 35.1826 31.877 35.1826 30.9644V10.3192C35.1826 9.40665 34.8201 8.53145 34.1748 7.88616C33.5295 7.24088 32.6543 6.87836 31.7417 6.87836H11.0966ZM11.0966 3.4375H31.7417C33.5669 3.4375 35.3173 4.16254 36.6078 5.45311C37.8984 6.74368 38.6234 8.49407 38.6234 10.3192V30.9644C38.6234 32.7895 37.8984 34.5399 36.6078 35.8305C35.3173 37.1211 33.5669 37.8461 31.7417 37.8461H11.0966C9.27142 37.8461 7.52103 37.1211 6.23045 35.8305C4.93988 34.5399 4.21484 32.7895 4.21484 30.9644V10.3192C4.21484 8.49407 4.93988 6.74368 6.23045 5.45311C7.52103 4.16254 9.27142 3.4375 11.0966 3.4375V3.4375Z" fill="white"/>
</svg>
