<svg width="42" height="42" viewBox="0 0 42 42" fill="none" xmlns="http://www.w3.org/2000/svg">
<path d="M18.7225 15.3715V17.7406H16.9883V20.6361H18.7225V29.2434H22.2872V20.6361H24.6786C24.6786 20.6361 24.904 19.2477 25.0124 17.7285H22.301V15.75C22.301 15.4524 22.6898 15.055 23.0752 15.055H25.0158V12.0391H22.3749C18.6347 12.0391 18.7225 14.938 18.7225 15.3715Z" fill="white"/>
<path d="M10.6473 6.87836C9.73477 6.87836 8.85958 7.24088 8.21429 7.88616C7.569 8.53145 7.20649 9.40665 7.20649 10.3192V30.9644C7.20649 31.877 7.569 32.7521 8.21429 33.3974C8.85958 34.0427 9.73477 34.4052 10.6473 34.4052H31.2925C32.2051 34.4052 33.0803 34.0427 33.7256 33.3974C34.3708 32.7521 34.7334 31.877 34.7334 30.9644V10.3192C34.7334 9.40665 34.3708 8.53145 33.7256 7.88616C33.0803 7.24088 32.2051 6.87836 31.2925 6.87836H10.6473ZM10.6473 3.4375H31.2925C33.1177 3.4375 34.868 4.16254 36.1586 5.45311C37.4492 6.74368 38.1742 8.49407 38.1742 10.3192V30.9644C38.1742 32.7895 37.4492 34.5399 36.1586 35.8305C34.868 37.1211 33.1177 37.8461 31.2925 37.8461H10.6473C8.8222 37.8461 7.07181 37.1211 5.78123 35.8305C4.49066 34.5399 3.76563 32.7895 3.76562 30.9644V10.3192C3.76563 8.49407 4.49066 6.74368 5.78123 5.45311C7.07181 4.16254 8.8222 3.4375 10.6473 3.4375V3.4375Z" fill="white"/>
</svg>
