<svg width="24" height="24" viewBox="0 0 24 24" fill="none" xmlns="http://www.w3.org/2000/svg">
<path d="M8.891 10.6773C8.67382 11.3092 8.6834 11.9969 8.91809 12.6225C9.06529 13.0149 9.29647 13.3705 9.59545 13.6643C9.89442 13.958 10.254 14.183 10.649 14.3232C11.0439 14.4635 11.4648 14.5158 11.8821 14.4765C12.2994 14.4371 12.7031 14.307 13.0649 14.0954C13.6353 13.7612 14.0737 13.2412 14.3065 12.6225H11.7187V10.7083H16.3668C16.5302 11.5711 16.4559 12.462 16.152 13.2859C15.8481 14.1097 15.3259 14.8354 14.6413 15.3854C14.0382 15.8696 13.3278 16.2021 12.5696 16.3552C11.8115 16.5082 11.0277 16.4773 10.2839 16.265C9.54019 16.0527 8.85819 15.6652 8.29508 15.135C7.73198 14.6047 7.30418 13.9473 7.04755 13.2176C6.79092 12.488 6.71294 11.7075 6.82014 10.9415C6.92734 10.1755 7.2166 9.4464 7.66367 8.81525C8.11074 8.1841 8.7026 7.66933 9.38963 7.31407C10.0767 6.95881 10.8388 6.77342 11.6123 6.77344C12.7404 6.77234 13.8331 7.16684 14.7004 7.88828L13.1326 9.1715C12.7653 8.94285 12.3513 8.79993 11.9211 8.75339C11.491 8.70684 11.0559 8.75786 10.6483 8.90265C10.2406 9.04744 9.87079 9.28227 9.56639 9.58969C9.26198 9.89711 9.0308 10.2692 8.89003 10.6783H8.891V10.6773Z" fill="white"/>
<path d="M5.80847 3.87298C5.29515 3.87298 4.80285 4.0769 4.43987 4.43987C4.0769 4.80285 3.87298 5.29515 3.87298 5.80847V17.4214C3.87298 17.9347 4.0769 18.427 4.43987 18.79C4.80285 19.1529 5.29515 19.3569 5.80847 19.3569H17.4214C17.9347 19.3569 18.427 19.1529 18.79 18.79C19.1529 18.427 19.3569 17.9347 19.3569 17.4214V5.80847C19.3569 5.29515 19.1529 4.80285 18.79 4.43987C18.427 4.0769 17.9347 3.87298 17.4214 3.87298H5.80847ZM5.80847 1.9375H17.4214C18.448 1.9375 19.4326 2.34533 20.1586 3.07128C20.8845 3.79723 21.2923 4.78182 21.2923 5.80847V17.4214C21.2923 18.448 20.8845 19.4326 20.1586 20.1586C19.4326 20.8845 18.448 21.2923 17.4214 21.2923H5.80847C4.78182 21.2923 3.79723 20.8845 3.07128 20.1586C2.34533 19.4326 1.9375 18.448 1.9375 17.4214V5.80847C1.9375 4.78182 2.34533 3.79723 3.07128 3.07128C3.79723 2.34533 4.78182 1.9375 5.80847 1.9375V1.9375Z" fill="white"/>
</svg>
