<svg width="42" height="42" viewBox="0 0 42 42" fill="none" xmlns="http://www.w3.org/2000/svg">
<path d="M28.1036 3.44531H14.2197C11.5068 3.4485 8.90602 4.52771 6.9879 6.44615C5.06978 8.36459 3.99101 10.9656 3.98828 13.6784L3.98828 27.5623C3.99147 30.2752 5.07068 32.876 6.98912 34.7941C8.90756 36.7122 11.5085 37.791 14.2214 37.7937H28.1053C30.8181 37.7905 33.4189 36.7113 35.337 34.7929C37.2552 32.8744 38.3339 30.2734 38.3367 27.5606V13.6767C38.3335 10.9639 37.2543 8.36305 35.3358 6.44493C33.4174 4.52681 30.8164 3.44804 28.1036 3.44531V3.44531ZM34.882 27.5606C34.882 28.4507 34.7067 29.3322 34.3661 30.1546C34.0254 30.977 33.5261 31.7243 32.8967 32.3537C32.2672 32.9831 31.52 33.4824 30.6976 33.8231C29.8752 34.1637 28.9937 34.3391 28.1036 34.3391H14.2197C12.4222 34.3386 10.6985 33.6243 9.42767 32.3531C8.15683 31.0819 7.4429 29.3581 7.4429 27.5606V13.6767C7.44336 11.8792 8.15772 10.1555 9.42889 8.8847C10.7001 7.61386 12.4239 6.89994 14.2214 6.89994H28.1053C29.9027 6.90039 31.6264 7.61475 32.8973 8.88592C34.1681 10.1571 34.882 11.881 34.882 13.6784V27.5623V27.5606Z" fill="white"/>
<path d="M21.1621 11.7344C18.8076 11.738 16.5506 12.6751 14.8858 14.3401C13.2211 16.0052 12.2844 18.2624 12.2812 20.617C12.284 22.9721 13.2206 25.23 14.8858 26.8955C16.551 28.561 18.8087 29.4981 21.1638 29.5013C23.5193 29.4985 25.7774 28.5616 27.443 26.8961C29.1085 25.2306 30.0454 22.9724 30.0481 20.617C30.0445 18.2618 29.107 16.0043 27.4411 14.3394C25.7753 12.6746 23.5172 11.7384 21.1621 11.7361V11.7344ZM21.1621 26.0466C19.7225 26.0466 18.3419 25.4748 17.324 24.4568C16.306 23.4389 15.7342 22.0583 15.7342 20.6187C15.7342 19.1791 16.306 17.7985 17.324 16.7805C18.3419 15.7626 19.7225 15.1907 21.1621 15.1907C22.6017 15.1907 23.9823 15.7626 25.0003 16.7805C26.0182 17.7985 26.5901 19.1791 26.5901 20.6187C26.5901 22.0583 26.0182 23.4389 25.0003 24.4568C23.9823 25.4748 22.6017 26.0466 21.1621 26.0466Z" fill="white"/>
<path d="M30.0618 13.9282C31.2371 13.9282 32.1899 12.9754 32.1899 11.8C32.1899 10.6247 31.2371 9.67188 30.0618 9.67188C28.8864 9.67188 27.9336 10.6247 27.9336 11.8C27.9336 12.9754 28.8864 13.9282 30.0618 13.9282Z" fill="white"/>
</svg>
