<svg width="24" height="24" viewBox="0 0 24 24" fill="none" xmlns="http://www.w3.org/2000/svg">
<path d="M16.4509 13.2169V16.7946H14.377V13.4559C14.377 12.6178 14.077 12.0459 13.326 12.0459C12.7531 12.0459 12.4115 12.4311 12.2615 12.8046C12.2073 12.9382 12.1928 13.124 12.1928 13.3098V16.7946H10.118C10.118 16.7946 10.146 11.1411 10.118 10.5556H12.1928V11.4391L12.1792 11.4595H12.1928V11.4401C12.4686 11.0143 12.9602 10.4085 14.0625 10.4085C15.427 10.4085 16.4509 11.3007 16.4509 13.2169V13.2169ZM7.94731 7.54688C7.23795 7.54688 6.77344 8.01333 6.77344 8.62494C6.77344 9.22494 7.22441 9.70397 7.92021 9.70397H7.93376C8.65763 9.70397 9.10763 9.22397 9.10763 8.62494C9.09408 8.01333 8.65763 7.54688 7.94731 7.54688V7.54688ZM6.89634 16.7946H8.97118V10.5556H6.89634V16.7946V16.7946Z" fill="white"/>
<path d="M5.80847 4.3847C5.29515 4.3847 4.80285 4.58862 4.43987 4.95159C4.0769 5.31457 3.87298 5.80686 3.87298 6.32019V17.9331C3.87298 18.4464 4.0769 18.9387 4.43987 19.3017C4.80285 19.6647 5.29515 19.8686 5.80847 19.8686H17.4214C17.9347 19.8686 18.427 19.6647 18.79 19.3017C19.1529 18.9387 19.3569 18.4464 19.3569 17.9331V6.32019C19.3569 5.80686 19.1529 5.31457 18.79 4.95159C18.427 4.58862 17.9347 4.3847 17.4214 4.3847H5.80847ZM5.80847 2.44922H17.4214C18.448 2.44922 19.4326 2.85705 20.1586 3.583C20.8845 4.30895 21.2923 5.29354 21.2923 6.32019V17.9331C21.2923 18.9597 20.8845 19.9443 20.1586 20.6703C19.4326 21.3962 18.448 21.8041 17.4214 21.8041H5.80847C4.78182 21.8041 3.79723 21.3962 3.07128 20.6703C2.34533 19.9443 1.9375 18.9597 1.9375 17.9331V6.32019C1.9375 5.29354 2.34533 4.30895 3.07128 3.583C3.79723 2.85705 4.78182 2.44922 5.80847 2.44922V2.44922Z" fill="white"/>
</svg>
