<svg width="42" height="42" viewBox="0 0 42 42" fill="none" xmlns="http://www.w3.org/2000/svg">
<path d="M29.2473 22.5878V28.9482H25.5604V23.0128C25.5604 21.5229 25.0271 20.5061 23.692 20.5061C22.6735 20.5061 22.0662 21.1908 21.7995 21.8549C21.7032 22.0923 21.6774 22.4227 21.6774 22.753V28.9482H17.9888C17.9888 28.9482 18.0387 18.8975 17.9888 17.8566H21.6774V19.4274L21.6533 19.4635H21.6774V19.4291C22.1677 18.6721 23.0417 17.5951 25.0012 17.5951C27.4271 17.5951 29.2473 19.1814 29.2473 22.5878ZM14.1299 12.5078C12.8688 12.5078 12.043 13.3371 12.043 14.4244C12.043 15.491 12.8447 16.3427 14.0817 16.3427H14.1058C15.3926 16.3427 16.1926 15.4893 16.1926 14.4244C16.1686 13.3371 15.3926 12.5078 14.1299 12.5078ZM12.2615 28.9482H15.9501V17.8566H12.2615V28.9482Z" fill="white"/>
<path d="M10.3231 6.87836C9.41055 6.87836 8.53536 7.24088 7.89007 7.88616C7.24478 8.53145 6.88227 9.40665 6.88227 10.3192V30.9644C6.88227 31.877 7.24478 32.7521 7.89007 33.3974C8.53536 34.0427 9.41055 34.4052 10.3231 34.4052H30.9683C31.8809 34.4052 32.7561 34.0427 33.4013 33.3974C34.0466 32.7521 34.4091 31.877 34.4091 30.9644V10.3192C34.4091 9.40665 34.0466 8.53145 33.4013 7.88616C32.7561 7.24088 31.8809 6.87836 30.9683 6.87836H10.3231ZM10.3231 3.4375H30.9683C32.7934 3.4375 34.5438 4.16254 35.8344 5.45311C37.125 6.74368 37.85 8.49407 37.85 10.3192V30.9644C37.85 32.7895 37.125 34.5399 35.8344 35.8305C34.5438 37.1211 32.7934 37.8461 30.9683 37.8461H10.3231C8.49798 37.8461 6.74759 37.1211 5.45702 35.8305C4.16644 34.5399 3.44141 32.7895 3.44141 30.9644V10.3192C3.44141 8.49407 4.16644 6.74368 5.45702 5.45311C6.74759 4.16254 8.49798 3.4375 10.3231 3.4375V3.4375Z" fill="white"/>
</svg>
