<svg width="24" height="24" viewBox="0 0 24 24" fill="none" xmlns="http://www.w3.org/2000/svg">
<path d="M8.70791 2.54688H14.5144C15.2843 2.54688 16.0228 2.85275 16.5673 3.39721C17.1117 3.94167 17.4176 4.68012 17.4176 5.4501V18.9985C17.4176 19.7685 17.1117 20.5069 16.5673 21.0514C16.0228 21.5958 15.2843 21.9017 14.5144 21.9017H8.70791C7.93793 21.9017 7.19948 21.5958 6.65502 21.0514C6.11056 20.5069 5.80469 19.7685 5.80469 18.9985V5.4501C5.80469 4.68012 6.11056 3.94167 6.65502 3.39721C7.19948 2.85275 7.93793 2.54688 8.70791 2.54688V2.54688ZM8.70791 4.48236C8.45125 4.48236 8.2051 4.58432 8.02362 4.7658C7.84213 4.94729 7.74017 5.19344 7.74017 5.4501V18.9985C7.74017 19.2551 7.84213 19.5013 8.02362 19.6828C8.2051 19.8643 8.45125 19.9662 8.70791 19.9662H14.5144C14.771 19.9662 15.0172 19.8643 15.1987 19.6828C15.3801 19.5013 15.4821 19.2551 15.4821 18.9985V5.4501C15.4821 5.19344 15.3801 4.94729 15.1987 4.7658C15.0172 4.58432 14.771 4.48236 14.5144 4.48236H8.70791ZM11.6111 18.9985C11.3545 18.9985 11.1083 18.8965 10.9268 18.715C10.7454 18.5336 10.6434 18.2874 10.6434 18.0307C10.6434 17.7741 10.7454 17.5279 10.9268 17.3464C11.1083 17.165 11.3545 17.063 11.6111 17.063C11.8678 17.063 12.1139 17.165 12.2954 17.3464C12.4769 17.5279 12.5789 17.7741 12.5789 18.0307C12.5789 18.2874 12.4769 18.5336 12.2954 18.715C12.1139 18.8965 11.8678 18.9985 11.6111 18.9985Z" fill="white"/>
</svg>
